HIERARCHY
ROOT Hips
{
  OFFSET 5.72205e-005 65.662 3.42586
  CHANNELS 6 Xposition Yposition Zposition Zrotation Xrotation Yrotation
  JOINT Chest
  {
    OFFSET 0 8.7983 -4.7612
    CHANNELS 3 Zrotation Xrotation Yrotation
    JOINT Chest2
    {
      OFFSET 0 8.0291 0.4195
      CHANNELS 3 Zrotation Xrotation Yrotation
      JOINT Chest3
      {
        OFFSET 0 9.9351 -2.2114
        CHANNELS 3 Zrotation Xrotation Yrotation
        JOINT Neck
        {
          OFFSET 0 22.3885 -0.4656
          CHANNELS 3 Zrotation Xrotation Yrotation
          JOINT Head
          {
            OFFSET -0.0001 12.643 3.4389
            CHANNELS 3 Zrotation Xrotation Yrotation
            End Site
            {
              OFFSET 0.0001 17.6655 0.5274
            }
          }
        }
        JOINT LeftCollar
        {
          OFFSET 2.2603 21.606 7.4023
          CHANNELS 3 Zrotation Xrotation Yrotation
          JOINT LeftShoulder
          {
            OFFSET 13.5163 -1.1332 -5.0146
            CHANNELS 3 Zrotation Xrotation Yrotation
            JOINT LeftElbow
            {
              OFFSET -0.0995 -28.05 -0.2431
              CHANNELS 3 Zrotation Xrotation Yrotation
              JOINT LeftWrist
              {
                OFFSET 0.0679 -23.3996 -0.1402
                CHANNELS 3 Zrotation Xrotation Yrotation
                JOINT LeftFinger1
                {
                  OFFSET 0.7932 -9.069 2.5189
                  CHANNELS 3 Zrotation Xrotation Yrotation
                  JOINT LeftFinger11
                  {
                    OFFSET -0.8272 -3.3923 0.5977
                    CHANNELS 3 Zrotation Xrotation Yrotation
                    JOINT LeftFinger12
                    {
                      OFFSET -0.5649 -2.3158 0.4082
                      CHANNELS 3 Zrotation Xrotation Yrotation
                      End Site
                      {
                        OFFSET -0.4919 -1.6479 0.2673
                      }
                    }
                  }
                }
                JOINT LeftFinger2
                {
                  OFFSET 0.9159 -9.2044 0.2193
                  CHANNELS 3 Zrotation Xrotation Yrotation
                  JOINT LeftFinger21
                  {
                    OFFSET 0.0117 -4.1944 -0.0248
                    CHANNELS 3 Zrotation Xrotation Yrotation
                    JOINT LeftFinger22
                    {
                      OFFSET 0.0071 -2.3249 -0.0142
                      CHANNELS 3 Zrotation Xrotation Yrotation
                      End Site
                      {
                        OFFSET -0.1475 -2.0882 0.0028
                      }
                    }
                  }
                }
                JOINT LeftFinger3
                {
                  OFFSET 0.6113 -8.7231 -2.0637
                  CHANNELS 3 Zrotation Xrotation Yrotation
                  JOINT LeftFinger31
                  {
                    OFFSET -0.1927 -3.8059 -0.2383
                    CHANNELS 3 Zrotation Xrotation Yrotation
                    JOINT LeftFinger32
                    {
                      OFFSET -0.1091 -2.1688 -0.1362
                      CHANNELS 3 Zrotation Xrotation Yrotation
                      End Site
                      {
                        OFFSET -0.2358 -1.9176 -0.0906
                      }
                    }
                  }
                }
                JOINT LeftFinger4
                {
                  OFFSET -0.6151 -8.0947 -3.5641
                  CHANNELS 3 Zrotation Xrotation Yrotation
                  JOINT LeftFinger41
                  {
                    OFFSET -0.4882 -2.341 -0.6462
                    CHANNELS 3 Zrotation Xrotation Yrotation
                    JOINT LeftFinger42
                    {
                      OFFSET -0.3575 -1.7167 -0.4742
                      CHANNELS 3 Zrotation Xrotation Yrotation
                      End Site
                      {
                        OFFSET -0.4187 -1.5237 -0.3496
                      }
                    }
                  }
                }
                JOINT LeftFinger0
                {
                  OFFSET -1.42 -1.8761 1.4223
                  CHANNELS 3 Zrotation Xrotation Yrotation
                  JOINT LeftFinger01
                  {
                    OFFSET -1.1471 -3.4929 2.6334
                    CHANNELS 3 Zrotation Xrotation Yrotation
                    JOINT LeftFinger02
                    {
                      OFFSET -0.823 -2.3 1.6571
                      CHANNELS 3 Zrotation Xrotation Yrotation
                      End Site
                      {
                        OFFSET -0.5822 -1.6914 1.1582
                      }
                    }
                  }
                }
              }
            }
          }
        }
        JOINT RightCollar
        {
          OFFSET -2.2603 21.606 7.4023
          CHANNELS 3 Zrotation Xrotation Yrotation
          JOINT RightShoulder
          {
            OFFSET -13.5187 -1.1334 -5.0155
            CHANNELS 3 Zrotation Xrotation Yrotation
            JOINT RightElbow
            {
              OFFSET 0.0994 -28.0499 -0.2431
              CHANNELS 3 Zrotation Xrotation Yrotation
              JOINT RightWrist
              {
                OFFSET -0.0679 -23.3996 -0.1402
                CHANNELS 3 Zrotation Xrotation Yrotation
                JOINT RightFinger1
                {
                  OFFSET -0.7932 -9.0691 2.5189
                  CHANNELS 3 Zrotation Xrotation Yrotation
                  JOINT RightFinger11
                  {
                    OFFSET 0.8272 -3.3923 0.5977
                    CHANNELS 3 Zrotation Xrotation Yrotation
                    JOINT RightFinger12
                    {
                      OFFSET 0.565 -2.3158 0.4082
                      CHANNELS 3 Zrotation Xrotation Yrotation
                      End Site
                      {
                        OFFSET 0.4919 -1.6479 0.2673
                      }
                    }
                  }
                }
                JOINT RightFinger2
                {
                  OFFSET -0.916 -9.2044 0.2193
                  CHANNELS 3 Zrotation Xrotation Yrotation
                  JOINT RightFinger21
                  {
                    OFFSET -0.0117 -4.1944 -0.0248
                    CHANNELS 3 Zrotation Xrotation Yrotation
                    JOINT RightFinger22
                    {
                      OFFSET -0.0071 -2.3249 -0.0142
                      CHANNELS 3 Zrotation Xrotation Yrotation
                      End Site
                      {
                        OFFSET 0.1475 -2.0882 0.0028
                      }
                    }
                  }
                }
                JOINT RightFinger3
                {
                  OFFSET -0.6113 -8.7231 -2.0637
                  CHANNELS 3 Zrotation Xrotation Yrotation
                  JOINT RightFinger31
                  {
                    OFFSET 0.1927 -3.8059 -0.2383
                    CHANNELS 3 Zrotation Xrotation Yrotation
                    JOINT RightFinger32
                    {
                      OFFSET 0.1091 -2.1688 -0.1362
                      CHANNELS 3 Zrotation Xrotation Yrotation
                      End Site
                      {
                        OFFSET 0.2358 -1.9176 -0.0906
                      }
                    }
                  }
                }
                JOINT RightFinger4
                {
                  OFFSET 0.6151 -8.0947 -3.564
                  CHANNELS 3 Zrotation Xrotation Yrotation
                  JOINT RightFinger41
                  {
                    OFFSET 0.4882 -2.341 -0.6462
                    CHANNELS 3 Zrotation Xrotation Yrotation
                    JOINT RightFinger42
                    {
                      OFFSET 0.3574 -1.7166 -0.4742
                      CHANNELS 3 Zrotation Xrotation Yrotation
                      End Site
                      {
                        OFFSET 0.4187 -1.5237 -0.3496
                      }
                    }
                  }
                }
                JOINT RightFinger0
                {
                  OFFSET 1.4199 -1.8761 1.4221
                  CHANNELS 3 Zrotation Xrotation Yrotation
                  JOINT RightFinger01
                  {
                    OFFSET 1.1472 -3.4929 2.6336
                    CHANNELS 3 Zrotation Xrotation Yrotation
                    JOINT RightFinger02
                    {
                      OFFSET 0.8229 -2.3 1.6571
                      CHANNELS 3 Zrotation Xrotation Yrotation
                      End Site
                      {
                        OFFSET 0.5822 -1.6914 1.1582
                      }
                    }
                  }
                }
              }
            }
          }
        }
      }
    }
  }
  JOINT RightHip
  {
    OFFSET -9.412 3.9771 -0.7758
    CHANNELS 3 Zrotation Xrotation Yrotation
    JOINT RightKnee
    {
      OFFSET -0.7531 -40.938 0
      CHANNELS 3 Zrotation Xrotation Yrotation
      JOINT RightAnkle
      {
        OFFSET 0 -40.1986 0
        CHANNELS 3 Zrotation Xrotation Yrotation
        JOINT RightToe
        {
          OFFSET 0 -4.4182 9.239
          CHANNELS 3 Zrotation Xrotation Yrotation
          End Site
          {
            OFFSET 0 0 6.1981
          }
        }
      }
    }
  }
  JOINT LeftHip
  {
    OFFSET 9.4119 3.9773 -0.7758
    CHANNELS 3 Zrotation Xrotation Yrotation
    JOINT LeftKnee
    {
      OFFSET 0.7532 -40.9383 0
      CHANNELS 3 Zrotation Xrotation Yrotation
      JOINT LeftAnkle
      {
        OFFSET 0 -40.1986 0
        CHANNELS 3 Zrotation Xrotation Yrotation
        JOINT LeftToe
        {
          OFFSET 0 -4.4182 9.239
          CHANNELS 3 Zrotation Xrotation Yrotation
          End Site
          {
            OFFSET 0 0 6.1981
          }
        }
      }
    }
  }
}
MOTION
Frames:	4
Frame Time:	0.0333333
-1.95975 92.5132 -1.57512 180 -6.72216 -6.88564e-008 -0.0393067 2.38948 -0.276902 -0.0671311 4.77914 -0.552884 -0.0671312 4.77914 -0.552884 -6.1945e-006 48.9962 9.66e-006 1.6986e-006 -81.0673 1.87641e-006 -16.9574 -1.87388 -1.64937 82.3715 -58.2813 2.723 -21.4904 -46.0412 4.19478 -20.6553 -30.3111 37.7002 4.79656e-006 1.05013e-005 1.48001e-006 2.73383e-006 4.97765e-006 1.70204e-005 -1.81881e-007 5.61311e-006 -3.40919e-006 4.79656e-006 1.05013e-005 1.48001e-006 -0.0128144 0.00233138 8.66659e-005 -9.54166e-015 -7.45443e-016 1.98785e-016 4.79656e-006 1.05013e-005 1.48001e-006 -0.0160228 0.00298725 0.000872063 2.8449e-033 1.09332e-015 -1.49089e-016 4.79656e-006 1.05013e-005 1.48001e-006 -0.0125507 0.00312531 0.00282486 1.43888e-005 -1.37029e-005 4.44098e-006 4.79656e-006 1.05013e-005 1.48001e-006 2.73383e-006 4.97765e-006 1.70204e-005 -1.81881e-007 5.61311e-006 -3.40919e-006 16.3078 -2.05524 -5.07178 -82.7196 -62.4517 -3.40541 22.5381 -47.5484 -3.79125 22.0962 -28.3683 -37.2646 1.27222e-014 5.46658e-016 -9.93923e-017 1.27222e-014 -1.49089e-016 -3.47873e-016 1.90833e-014 1.98785e-016 3.47873e-016 1.27222e-014 5.46658e-016 -9.93923e-017 0.0129394 0.00231821 -8.78405e-005 3.18055e-015 1.49089e-016 2.48481e-016 1.27222e-014 5.46658e-016 -9.93923e-017 0.016328 0.00304087 -0.000870269 9.54166e-015 1.49089e-016 -9.93923e-017 1.27222e-014 5.46658e-016 -9.93923e-017 0.0145855 0.00367998 -0.00325134 0 0 -9.93923e-017 1.27222e-014 5.46658e-016 -9.93923e-017 1.27222e-014 -1.49089e-016 -3.47873e-016 1.90833e-014 1.98785e-016 3.47873e-016 -40.1055 -66.4705 -15.2306 105.361 33.3603 -91.1585 -35.0962 37.8249 37.2317 4.79464e-006 -4.75433e-006 2.7039e-006 38.1032 -56.0928 19.7119 -93.0366 24.077 85.9716 41.9381 34.9608 -40.4911 -1.0985e-006 -4.23752e-007 -5.34579e-006 
-1.89493 92.4274 -1.45669 -180 -6.37472 2.4758e-007 -0.0378129 2.14194 -0.277266 -0.0653132 4.28404 -0.553699 -0.0653131 4.28404 -0.5537 1.79698e-005 48.9965 -2.75606e-005 5.4174e-007 -79.8789 1.08208e-006 -17.2224 -1.23447 -1.66139 82.3714 -58.2813 2.72295 -20.9726 -45.3428 4.59907 -21.284 -30.5668 37.3589 1.55176e-033 -2.98177e-016 2.98177e-016 -1.03451e-033 -1.98785e-016 -2.98177e-016 -1.03451e-033 -1.98785e-016 -2.98177e-016 1.55176e-033 -2.98177e-016 2.98177e-016 -0.0128277 0.00232663 8.19631e-005 1.27222e-014 -5.96354e-016 -0 1.55176e-033 -2.98177e-016 2.98177e-016 -0.0160844 0.00299319 0.000852724 -1.85305e-007 -9.91875e-007 -3.40912e-006 1.55176e-033 -2.98177e-016 2.98177e-016 -0.0126038 0.0031239 0.00283405 -6.36111e-015 -2.06736e-014 1.33186e-014 1.55176e-033 -2.98177e-016 2.98177e-016 -1.03451e-033 -1.98785e-016 -2.98177e-016 -1.03451e-033 -1.98785e-016 -2.98177e-016 16.5628 -1.41892 -4.97634 -82.7196 -62.4517 -3.4054 21.9415 -46.7623 -4.26316 22.7581 -28.6585 -36.8772 7.70429e-008 6.81374e-006 5.12129e-006 -2.74733e-006 5.82575e-006 7.66502e-008 6.36111e-015 -4.96962e-017 1.49089e-016 7.70429e-008 6.81374e-006 5.12129e-006 0.0129751 0.00231817 -8.92941e-005 -4.72384e-006 -1.03627e-006 3.47328e-006 7.70429e-008 6.81374e-006 5.12129e-006 0.0162969 0.00302337 -0.000889104 2.02713e-006 1.71593e-005 1.75192e-008 7.70429e-008 6.81374e-006 5.12129e-006 0.0146793 0.00370573 -0.00327982 -3.18055e-015 -4.96962e-017 -2.48481e-016 7.70429e-008 6.81374e-006 5.12129e-006 -2.74733e-006 5.82575e-006 7.66502e-008 6.36111e-015 -4.96962e-017 1.49089e-016 -40.1056 -66.729 -15.2109 105.327 33.3645 -91.1156 -34.8772 37.6989 37.0248 4.59603e-006 4.62427e-006 -8.29059e-006 38.3808 -56.5007 19.6863 -92.9981 24.0773 85.913 41.3996 34.986 -40.227 -6.51852e-006 4.703e-007 1.97108e-006 
-1.83703 92.3506 -1.35115 180 -6.06378 -1.65402e-007 -0.0364757 1.92045 -0.27757 -0.0636896 3.84104 -0.55438 -0.0636896 3.84104 -0.55438 1.05383e-005 48.9964 -1.6256e-005 1.71719e-006 -78.8155 1.87706e-006 -17.459 -0.663236 -1.66955 82.3714 -58.2813 2.72292 -20.5214 -44.7163 4.94835 -21.8489 -30.7922 37.05 3.18055e-015 1.98785e-016 -4.96962e-016 3.18055e-015 1.04362e-015 -1.98785e-016 -3.18055e-015 4.96962e-017 -1.98785e-016 3.18055e-015 1.98785e-016 -4.96962e-016 -0.0127714 0.00231766 8.01469e-005 3.18055e-015 9.93923e-016 -0 3.18055e-015 1.98785e-016 -4.96962e-016 -0.0160005 0.00299132 0.000862679 -3.18055e-015 5.46658e-016 -2.98177e-016 3.18055e-015 1.98785e-016 -4.96962e-016 -0.0126432 0.00314312 0.00284253 -3.18055e-015 -3.97569e-016 8.94531e-016 3.18055e-015 1.98785e-016 -4.96962e-016 3.18055e-015 1.04362e-015 -1.98785e-016 -3.18055e-015 4.96962e-017 -1.98785e-016 16.7898 -0.85012 -4.89346 -82.7197 -62.4517 -3.40544 21.424 -46.0564 -4.66864 23.3533 -28.9141 -36.5266 -4.8024e-006 -2.20791e-006 -1.64119e-006 -2.74856e-006 5.84188e-006 7.70921e-008 5.54266e-008 4.61719e-006 3.41421e-006 -4.8024e-006 -2.20791e-006 -1.64119e-006 0.0129591 0.00232625 -8.05216e-005 -4.05101e-006 -1.14278e-005 -2.25328e-008 -4.8024e-006 -2.20791e-006 -1.64119e-006 0.0163559 0.00305224 -0.000873541 -4.80212e-006 -2.20777e-006 -1.64146e-006 -4.8024e-006 -2.20791e-006 -1.64119e-006 0.0146451 0.00371399 -0.00327456 1.27222e-014 -9.93923e-017 -7.45443e-017 -4.8024e-006 -2.20791e-006 -1.64119e-006 -2.74856e-006 5.84188e-006 7.70921e-008 5.54266e-008 4.61719e-006 3.41421e-006 -40.1005 -66.9599 -15.1885 105.294 33.3683 -91.0766 -34.6825 37.586 36.8408 6.36111e-015 0 1.59028e-015 38.6304 -56.8654 19.6656 -92.9633 24.0776 85.861 40.9184 35.0063 -39.9908 3.18607e-006 -1.49803e-006 -2.75451e-006 
-1.77911 92.2735 -1.24573 180 -5.75291 -2.54989e-007 -0.0351353 1.69855 -0.277841 -0.0620665 3.39726 -0.555005 -0.0620664 3.39726 -0.555006 4.29051e-005 48.9966 -6.4949e-005 7.99454e-007 -77.7506 7.2466e-007 -17.6958 -0.0914371 -1.67532 82.3714 -58.2813 2.72294 -20.0801 -44.0874 5.28723 -22.4168 -31.0152 36.7378 1.72633e-006 2.76718e-006 -1.74608e-006 4.79992e-006 1.70854e-005 1.46259e-006 1.91789e-006 -2.69913e-006 1.66288e-006 1.72633e-006 2.76718e-006 -1.74608e-006 -0.0128706 0.00234931 8.5222e-005 1.72574e-006 -3.69162e-006 -1.74601e-006 1.72633e-006 2.76718e-006 -1.74608e-006 -0.0160204 0.00298564 0.000850747 -2.78684e-006 3.3863e-006 1.90466e-006 1.72633e-006 2.76718e-006 -1.74608e-006 -0.0125909 0.00313399 0.00282873 6.4297e-006 3.01066e-006 -1.98743e-006 1.72633e-006 2.76718e-006 -1.74608e-006 4.79992e-006 1.70854e-005 1.46259e-006 1.91789e-006 -2.69913e-006 1.66288e-006 17.0161 -0.280487 -4.81291 -82.7196 -62.4516 -3.4054 20.9196 -45.3477 -5.06023 23.952 -29.1667 -36.1719 2.08357e-006 4.62824e-006 3.41929e-006 -4.83348e-006 -4.53152e-006 -3.34182e-006 -7.37554e-006 2.60608e-007 8.68539e-006 2.08357e-006 4.62824e-006 3.41929e-006 0.0129337 0.00230746 -0.000100266 7.67246e-006 1.13643e-005 8.38597e-006 2.08357e-006 4.62824e-006 3.41929e-006 0.0162913 0.00301909 -0.000857261 -6.73807e-006 -1.02314e-006 3.48112e-006 2.08357e-006 4.62824e-006 3.41929e-006 0.0146158 0.00367697 -0.00326884 -9.42947e-006 -2.02923e-006 6.97252e-006 2.08357e-006 4.62824e-006 3.41929e-006 -4.83348e-006 -4.53152e-006 -3.34182e-006 -7.37554e-006 2.60608e-007 8.68539e-006 -40.101 -67.1909 -15.1712 105.263 33.372 -91.0385 -34.4886 37.4724 36.6576 -2.7747e-006 2.9148e-007 3.57694e-006 38.8779 -57.2313 19.6438 -92.9262 24.0778 85.8095 40.4371 35.0248 -39.7542 1.59028e-015 -9.54166e-015 -3.18055e-015 
